<?xml version="1.0" standalone="no"?>
<!DOCTYPE svg PUBLIC "-//W3C//DTD SVG 20010904//EN"
 "http://www.w3.org/TR/2001/REC-SVG-20010904/DTD/svg10.dtd">
<svg version="1.0" xmlns="http://www.w3.org/2000/svg"
 width="300.000000pt" height="300.000000pt" viewBox="0 0 300.000000 300.000000"
 preserveAspectRatio="xMidYMid meet">
<metadata>
Created by potrace 1.11, written by Peter Selinger 2001-2013
</metadata>
<g transform="translate(0.000000,300.000000) scale(0.100000,-0.100000)"
fill="#000000" stroke="none">
<path d="M468 2193 l-347 -348 -2 -667 -2 -668 27 -38 c14 -21 45 -49 69 -63
l42 -24 1234 -3 c1389 -3 1310 -7 1375 69 22 26 39 59 45 91 8 33 10 333 9
911 l-3 862 -5 -860 -5 -860 -3 898 c-2 781 -4 902 -17 934 -20 48 -41 71 -87
94 -36 18 -75 19 -1010 19 l-973 0 -347 -347z"/>
</g>
</svg>
